<svg xmlns="http://www.w3.org/2000/svg" viewBox="0 0 38 38" fill="none">
<g transform="scale(1.5) translate(5 5)">
    <path fill-rule="evenodd" clip-rule="evenodd" d="M2 6C2 4.89543 2.89543 4 4 4H8.66667C9.77124 4 10.6667 4.89543 10.6667 6V10C10.6667 11.1046 9.77124 12 8.66667 12H4C2.89543 12 2 11.1046 2 10V6ZM4 5.33333C3.63181 5.33333 3.33333 5.63181 3.33333 6V10C3.33333 10.3682 3.63181 10.6667 4 10.6667H8.66667C9.03486 10.6667 9.33333 10.3682 9.33333 10V6C9.33333 5.63181 9.03486 5.33333 8.66667 5.33333H4Z" fill="currentColor"/>
    <path d="M12.8153 4.92867C12.7625 4.95108 12.7139 4.98191 12.6678 5.01591L11.3333 6V10L12.6678 10.9841C12.7139 11.0181 12.7625 11.0489 12.8153 11.0713C13.6837 11.4404 14.6667 10.8048 14.6667 9.84262V6.15738C14.6667 5.19521 13.6837 4.55957 12.8153 4.92867Z" fill="currentColor"/>
</g>
</svg>