<svg width="16" height="16" viewBox="0 0 16 16" fill="none" xmlns="http://www.w3.org/2000/svg">
    <path fill-rule="evenodd" clip-rule="evenodd" d="M2 5.33333C2 4.22876 2.89543 3.33333 4 3.33333H12C13.1046 3.33333 14 4.22876 14 5.33333V10.6667C14 11.7712 13.1046 12.6667 12 12.6667H4C2.89543 12.6667 2 11.7712 2 10.6667V5.33333ZM4 4.66666C3.63181 4.66666 3.33333 4.96514 3.33333 5.33333V10.6667C3.33333 11.0349 3.63181 11.3333 4 11.3333H12C12.3682 11.3333 12.6667 11.0349 12.6667 10.6667V5.33333C12.6667 4.96514 12.3682 4.66666 12 4.66666H4Z" fill="currentColor"/>
    <path fill-rule="evenodd" clip-rule="evenodd" d="M6 12V4H7.33333V12H6Z" fill="currentColor"/>
</svg>
    