<svg width="38" height="38" viewBox="-8 -8 32 32" fill="none" xmlns="http://www.w3.org/2000/svg">
    <path fill-rule="evenodd" clip-rule="evenodd" d="M12 1.33337C13.4727 1.33337 14.6666 2.52728 14.6666 4.00004C14.6666 5.4728 13.4727 6.66671 12 6.66671C11.4931 6.66671 11.0194 6.52491 10.6159 6.27934L10.2721 6.62374C10.0345 6.86142 9.90102 7.18411 9.90102 7.52022V8.47986C9.90102 8.81597 10.0345 9.13866 10.2721 9.37634L10.6159 9.72009C11.0193 9.47463 11.4932 9.33337 12 9.33337C13.4727 9.33337 14.6666 10.5273 14.6666 12C14.6666 13.4728 13.4727 14.6667 12 14.6667C10.5272 14.6667 9.33331 13.4728 9.33331 12C9.33331 11.4932 9.47457 11.0194 9.72003 10.6159L9.37628 10.2722C9.1386 10.0345 8.81591 9.90108 8.4798 9.90108H7.52016C7.18405 9.90108 6.86136 10.0345 6.62368 10.2722L6.27928 10.6159C6.52485 11.0195 6.66665 11.4931 6.66665 12C6.66665 13.4728 5.47274 14.6667 3.99998 14.6667C2.52722 14.6667 1.33331 13.4728 1.33331 12C1.33331 10.5273 2.52722 9.33337 3.99998 9.33337C4.50658 9.33337 4.98008 9.47481 5.38344 9.72009L5.72784 9.37634C5.9655 9.13866 6.09894 8.81597 6.09894 8.47986V7.52022C6.09894 7.18411 5.9655 6.86142 5.72784 6.62374L5.38344 6.27934C4.98001 6.52473 4.5067 6.66671 3.99998 6.66671C2.52722 6.66671 1.33331 5.4728 1.33331 4.00004C1.33331 2.52728 2.52722 1.33337 3.99998 1.33337C5.47274 1.33337 6.66665 2.52728 6.66665 4.00004C6.66665 4.50676 6.52467 4.98008 6.27928 5.3835L6.62368 5.72791C6.86136 5.96556 7.18405 6.099 7.52016 6.099H8.4798C8.81591 6.099 9.1386 5.96556 9.37628 5.72791L9.72003 5.3835C9.47475 4.98014 9.33331 4.50664 9.33331 4.00004C9.33331 2.52728 10.5272 1.33337 12 1.33337ZM3.99998 10.3998C3.11632 10.3998 2.39972 11.1164 2.39972 12C2.39972 12.8837 3.11632 13.6003 3.99998 13.6003C4.88364 13.6003 5.60024 12.8837 5.60024 12C5.60024 11.7911 5.55917 11.5919 5.48631 11.4089L4.41469 12.4812C4.16723 12.7284 3.76625 12.7286 3.51886 12.4812C3.27147 12.2338 3.27158 11.8328 3.51886 11.5853L4.59047 10.5131C4.40769 10.4404 4.20862 10.3998 3.99998 10.3998ZM12 10.3998C11.7911 10.3998 11.5918 10.4403 11.4088 10.5131L12.4811 11.5853C12.7284 11.8328 12.7285 12.2338 12.4811 12.4812C12.2337 12.7286 11.8327 12.7284 11.5853 12.4812L10.513 11.4089C10.4402 11.5918 10.3997 11.7912 10.3997 12C10.3997 12.8837 11.1163 13.6003 12 13.6003C12.8836 13.6003 13.6002 12.8837 13.6002 12C13.6002 11.1164 12.8836 10.3998 12 10.3998ZM3.99998 2.39978C3.11632 2.39978 2.39972 3.11639 2.39972 4.00004C2.39972 4.8837 3.11632 5.6003 3.99998 5.6003C4.20871 5.6003 4.40763 5.55909 4.59047 5.48637L3.51886 4.41475C3.27158 4.16729 3.27147 3.76631 3.51886 3.51892C3.76625 3.27153 4.16723 3.27164 4.41469 3.51892L5.48631 4.59054C5.55903 4.40769 5.60024 4.20877 5.60024 4.00004C5.60024 3.11639 4.88364 2.39978 3.99998 2.39978ZM12 2.39978C11.1163 2.39978 10.3997 3.11639 10.3997 4.00004C10.3997 4.20868 10.4403 4.40775 10.513 4.59054L11.5853 3.51892C11.8327 3.27164 12.2337 3.27153 12.4811 3.51892C12.7285 3.76631 12.7284 4.16729 12.4811 4.41475L11.4088 5.48637C11.5918 5.55923 11.791 5.6003 12 5.6003C12.8836 5.6003 13.6002 4.8837 13.6002 4.00004C13.6002 3.11639 12.8836 2.39978 12 2.39978Z" fill="currentColor"/>
</svg>
