<svg width="40" height="40" viewBox="0 0 40 40" fill="none" xmlns="http://www.w3.org/2000/svg">
<rect width="40" height="40" fill="url(#paint0_linear_451_2169)"/>
<path d="M14 22L26 16L14 10V13L20.4286 16L14 19V22Z" fill="white"/>
<path d="M14.1118 22.2236C14.0343 22.2624 13.9423 22.2582 13.8686 22.2127C13.7949 22.1671 13.75 22.0866 13.75 22V19C13.75 18.9029 13.8063 18.8145 13.8943 18.7735L19.8374 16L13.8943 13.2265C13.8063 13.1855 13.75 13.0971 13.75 13V10C13.75 9.91336 13.7949 9.83289 13.8686 9.78734C13.9423 9.74179 14.0343 9.73764 14.1118 9.77639L26.1118 15.7764C26.1965 15.8187 26.25 15.9053 26.25 16C26.25 16.0947 26.1965 16.1813 26.1118 16.2236L14.1118 22.2236Z" stroke="black" stroke-opacity="0.05" stroke-width="0.5" stroke-linejoin="round" style="mix-blend-mode:multiply"/>
<path d="M26 18L14 24L26 30L26 27L19.5714 24L26 21L26 18Z" fill="white"/>
<path d="M25.8882 17.7764C25.9657 17.7376 26.0577 17.7418 26.1314 17.7873C26.2051 17.8329 26.25 17.9134 26.25 18L26.25 21C26.25 21.0971 26.1937 21.1855 26.1057 21.2265L20.1626 24L26.1057 26.7735C26.1937 26.8145 26.25 26.9029 26.25 27L26.25 30C26.25 30.0866 26.2051 30.1671 26.1314 30.2127C26.0577 30.2582 25.9657 30.2624 25.8882 30.2236L13.8882 24.2236C13.8035 24.1813 13.75 24.0947 13.75 24C13.75 23.9053 13.8035 23.8187 13.8882 23.7764L25.8882 17.7764Z" stroke="black" stroke-opacity="0.05" stroke-width="0.5" stroke-linejoin="round" style="mix-blend-mode:multiply"/>
<defs>
<linearGradient id="paint0_linear_451_2169" x1="20" y1="0" x2="20" y2="40" gradientUnits="userSpaceOnUse">
<stop stop-color="#EF612E"/>
<stop offset="1" stop-color="#FFAF50"/>
</linearGradient>
</defs>
</svg>
