<svg width="38" height="38" viewBox="-8 -8 32 32" fill="none" xmlns="http://www.w3.org/2000/svg">
    <path fill-rule="evenodd" clip-rule="evenodd" d="M4.44728 1.7561C6.14077 0.763957 8.53159 1.57857 10.4375 3.58357C12.75 3.02099 14.4585 3.40647 14.6491 4.73071C14.7831 5.66256 14.139 6.87994 12.9942 8.09008C13.7427 10.7586 13.2413 13.2551 11.5527 14.2444C9.85867 15.2369 7.46679 14.4208 5.56056 12.4143C3.34914 12.9521 1.691 12.6254 1.38412 11.4371L1.35092 11.2698C1.21678 10.3379 1.85972 9.11931 3.00457 7.90909C2.28693 5.34963 2.72037 2.94871 4.24741 1.88435L4.44728 1.7561ZM11.9889 9.03995C11.002 9.88136 9.79998 10.6808 8.47918 11.3303L8.13673 11.4937C7.70533 11.6942 7.28148 11.8681 6.8698 12.0172C7.32387 12.4287 7.79226 12.7587 8.25326 12.9983C9.39237 13.5903 10.3231 13.574 10.946 13.2092C11.5745 12.841 12.0613 12.0184 12.1263 10.7086C12.1518 10.1934 12.1065 9.62999 11.9889 9.03995ZM3.46225 9.20206C3.15128 9.5802 2.91825 9.93412 2.76238 10.2489C2.54363 10.6909 2.51958 10.967 2.53842 11.0985C2.54902 11.1721 2.56635 11.2146 2.67058 11.2763C2.81832 11.3636 3.12484 11.4626 3.6478 11.467C3.95641 11.4696 4.3074 11.4373 4.69402 11.3707C4.45655 11.0439 4.23084 10.6971 4.02215 10.3303C3.81017 9.95774 3.62416 9.58004 3.46225 9.20206ZM10.0358 4.9423C9.42018 5.13611 8.75205 5.40184 8.05014 5.74698C6.61265 6.45384 5.33887 7.34291 4.37175 8.24373C4.55213 8.73829 4.78227 9.2401 5.06511 9.73722C5.33995 10.2202 5.64271 10.6614 5.96355 11.0575C6.5793 10.8637 7.24782 10.5987 7.94988 10.2535C9.38732 9.54667 10.6605 8.65688 11.6276 7.7561C11.4473 7.26173 11.2176 6.76019 10.9349 6.26326C10.66 5.78001 10.3568 5.33855 10.0358 4.9423ZM7.74675 3.00219C6.60759 2.41015 5.67698 2.42644 5.05405 2.79126C4.42548 3.15953 3.93866 3.98199 3.87371 5.29191C3.84822 5.80668 3.89236 6.36967 4.00978 6.95922C4.91091 6.19088 5.9923 5.45862 7.17905 4.84269L7.52084 4.67016C8.07056 4.39986 8.6096 4.17089 9.12957 3.98266C8.67568 3.57138 8.20757 3.24172 7.74675 3.00219ZM12.3522 4.53344C12.0433 4.53086 11.6918 4.56177 11.3047 4.6285C11.5425 4.95566 11.7689 5.3029 11.9779 5.67016C12.1897 6.04255 12.3753 6.41999 12.5371 6.79777C12.8481 6.41965 13.0818 6.06635 13.2376 5.75154C13.4564 5.30973 13.4804 5.03352 13.4616 4.90193C13.451 4.82831 13.4337 4.7859 13.3294 4.7242C13.1817 4.63684 12.8753 4.53787 12.3522 4.53344Z" fill="currentColor"/>
</svg>
