<svg xmlns="http://www.w3.org/2000/svg" width="16" height="16" viewBox="0 0 12 12" fill="none">
  <g transform="translate(0, 12) scale(1, -1)">
  <path fill-rule="evenodd" clip-rule="evenodd" d="M2.5 9C2.5 8.72386 2.72386 8.5 3 8.5L9 8.5C9.27614 8.5 9.5 8.72386 9.5 9C9.5 9.27614 9.27614 9.5 9 9.5L3 9.5C2.72386 9.5 2.5 9.27614 2.5 9ZM5.50001 6L4.90001 5.2C4.73432 4.97909 4.42092 4.93432 4.20001 5.1C3.9791 5.26569 3.93432 5.57909 4.10001 5.8L5.28001 7.37334C5.64001 7.85334 6.36001 7.85334 6.72001 7.37334L7.90001 5.8C8.06569 5.57909 8.02092 5.26569 7.80001 5.1C7.57909 4.93432 7.26569 4.97909 7.10001 5.2L6.50001 6.00001L6.50001 2.5C6.50001 2.22386 6.27615 2 6.00001 2C5.72387 2 5.50001 2.22386 5.50001 2.5L5.50001 6Z" fill="currentColor"/>
  </g>
</svg>