<svg width="16" height="16" viewBox="0 0 12 12" fill="none" xmlns="http://www.w3.org/2000/svg">
<path d="M4.49999 5H5.49999V6.5H6.99999V7.5H5.49999V9H4.49999V7.5H2.99999V6.5H4.49999V5Z" fill="currentColor"/>
<path fill-rule="evenodd" clip-rule="evenodd" d="M9 9H9.49999C10.3284 9 11 8.32843 11 7.5V2.5C11 1.67157 10.3284 1 9.49999 1H4.49999C3.67157 1 2.99999 1.67157 2.99999 2.5V3H2.5C1.67157 3 1 3.67157 1 4.5V9.5C1 10.3284 1.67157 11 2.5 11H7.5C8.32843 11 9 10.3284 9 9.5V9ZM4.49999 2C4.22385 2 3.99999 2.22386 3.99999 2.5V3H7.5C8.32843 3 9 3.67157 9 4.5V8H9.49999C9.77614 8 9.99999 7.77614 9.99999 7.5V2.5C9.99999 2.22386 9.77614 2 9.49999 2H4.49999ZM2 4.5C2 4.22386 2.22386 4 2.5 4H7.5C7.77614 4 8 4.22386 8 4.5V9.5C8 9.77614 7.77614 10 7.5 10H2.5C2.22386 10 2 9.77614 2 9.5V4.5Z" fill="currentColor"/>
</svg>