<svg width="38" height="38" viewBox="0 0 38 38" fill="none" xmlns="http://www.w3.org/2000/svg">
<path d="M22.6649 26.2004C22.5798 26.1153 22.5157 26.0116 22.4777 25.8975L21.4002 22.6651C21.1396 21.8834 21.8834 21.1396 22.6651 21.4002L25.8975 22.4777C26.0117 22.5157 26.1154 22.5798 26.2004 22.6649V22.6649C26.503 22.9675 26.503 23.4581 26.2004 23.7607L23.7607 26.2004C23.4581 26.503 22.9675 26.503 22.6649 26.2004V26.2004Z" fill="currentColor"/>
<path fill-rule="evenodd" clip-rule="evenodd" d="m 8.7128906,11.257813 2.1542974,4.226562 1.158203,-0.589844 -1.150391,-2.255859 0.455078,0.01758 0.04883,-1.298828 z m 3.9648434,0.148437 -0.04883,1.298828 5.197266,0.195313 0.04883,-1.298828 z m 6.496094,0.244141 -0.04883,1.298828 5.195312,0.195312 0.04883,-1.298828 z m 6.496094,0.24414 -0.04883,1.298828 0.816406,0.03125 -1.117188,1.361329 1.003907,0.824218 2.779297,-3.386718 z m -1.175781,3.695313 -3.298829,4.021484 1.00586,0.824219 L 25.5,16.416016 Z m -11.878907,0.46289 -1.158203,0.589844 2.359375,4.634766 1.160157,-0.591797 z m 2.951172,5.791016 -1.158203,0.591797 2.359375,4.632812 1.158203,-0.589843 z" fill="currentColor"/>
</svg>
