<svg width="16" height="16" viewBox="0 0 12 12" fill="none" xmlns="http://www.w3.org/2000/svg">
<path fill-rule="evenodd" clip-rule="evenodd" d="M2.5 3C2.5 2.72386 2.72386 2.5 3 2.5H4C4.27614 2.5 4.5 2.27614 4.5 2C4.5 1.72386 4.27614 1.5 4 1.5H3C2.17157 1.5 1.5 2.17157 1.5 3V4C1.5 4.27614 1.72386 4.5 2 4.5C2.27614 4.5 2.5 4.27614 2.5 4V3ZM8 1.5C7.72386 1.5 7.5 1.72386 7.5 2C7.5 2.27614 7.72386 2.5 8 2.5H9C9.27614 2.5 9.5 2.72386 9.5 3V4C9.5 4.27614 9.72386 4.5 10 4.5C10.2761 4.5 10.5 4.27614 10.5 4V3C10.5 2.17157 9.82843 1.5 9 1.5H8ZM2.5 8C2.5 7.72386 2.27614 7.5 2 7.5C1.72386 7.5 1.5 7.72386 1.5 8V9C1.5 9.82843 2.17157 10.5 3 10.5H4C4.27614 10.5 4.5 10.2761 4.5 10C4.5 9.72386 4.27614 9.5 4 9.5H3C2.72386 9.5 2.5 9.27614 2.5 9V8ZM10.5 8C10.5 7.72386 10.2761 7.5 10 7.5C9.72386 7.5 9.5 7.72386 9.5 8V9C9.5 9.27614 9.27614 9.5 9 9.5H8C7.72386 9.5 7.5 9.72386 7.5 10C7.5 10.2761 7.72386 10.5 8 10.5H9C9.82843 10.5 10.5 9.82843 10.5 9V8ZM4.5 3.5C3.94772 3.5 3.5 3.94772 3.5 4.5V7.5C3.5 8.05228 3.94772 8.5 4.5 8.5H7.5C8.05228 8.5 8.5 8.05228 8.5 7.5V4.5C8.5 3.94772 8.05228 3.5 7.5 3.5H4.5Z" fill="currentColor"/>
</svg>
