<svg width="16" height="16" viewBox="-1 -1 11 11" fill="none" xmlns="http://www.w3.org/2000/svg">
<path fill-rule="evenodd" clip-rule="evenodd" d="M2.66421 0C2.26639 0 1.88486 0.158035 1.60355 0.43934L0.43934 1.60355C0.158035 1.88486 0 2.26639 0 2.66421V6.5C0 7.32843 0.671573 8 1.5 8H6.5C7.32843 8 8 7.32843 8 6.5V1.5C8 0.671573 7.32843 0 6.5 0H5.5H3.5H2.66421ZM3 1H2.66421C2.53161 1 2.40443 1.05268 2.31066 1.14645L1.14645 2.31066C1.05268 2.40443 1 2.53161 1 2.66421V6.5C1 6.77614 1.22386 7 1.5 7H6.5C6.77614 7 7 6.77614 7 6.5V1.5C7 1.22386 6.77614 1 6.5 1H6V2.5C6 2.77614 5.77614 3 5.5 3H3.5C3.22386 3 3 2.77614 3 2.5V1Z" fill="currentColor"/>
</svg>