<svg width="16" height="16" viewBox="0 0 12 12" fill="none" xmlns="http://www.w3.org/2000/svg">
<path fill-rule="evenodd" clip-rule="evenodd" d="M3 2.5C2.72386 2.5 2.5 2.72386 2.5 3V4C2.5 4.27614 2.27614 4.5 2 4.5C1.72386 4.5 1.5 4.27614 1.5 4V3C1.5 2.17157 2.17157 1.5 3 1.5H4C4.27614 1.5 4.5 1.72386 4.5 2C4.5 2.27614 4.27614 2.5 4 2.5H3ZM7.5 2C7.5 1.72386 7.72386 1.5 8 1.5H9C9.82843 1.5 10.5 2.17157 10.5 3V4C10.5 4.27614 10.2761 4.5 10 4.5C9.72386 4.5 9.5 4.27614 9.5 4V3C9.5 2.72386 9.27614 2.5 9 2.5H8C7.72386 2.5 7.5 2.27614 7.5 2ZM2 7.5C2.27614 7.5 2.5 7.72386 2.5 8V9C2.5 9.27614 2.72386 9.5 3 9.5H4C4.27614 9.5 4.5 9.72386 4.5 10C4.5 10.2761 4.27614 10.5 4 10.5H3C2.17157 10.5 1.5 9.82843 1.5 9V8C1.5 7.72386 1.72386 7.5 2 7.5ZM10 7.5C10.2761 7.5 10.5 7.72386 10.5 8V9C10.5 9.82843 9.82843 10.5 9 10.5H8C7.72386 10.5 7.5 10.2761 7.5 10C7.5 9.72386 7.72386 9.5 8 9.5H9C9.27614 9.5 9.5 9.27614 9.5 9V8C9.5 7.72386 9.72386 7.5 10 7.5Z" fill="currentColor"/>
</svg>
