<svg width="16" height="16" viewBox="4 4 16 16" fill="none" xmlns="http://www.w3.org/2000/svg">
<path fill-rule="evenodd" clip-rule="evenodd" d="M12 11C11.4477 11 11 11.4477 11 12C11 12.5523 11.4477 13 12 13C12.5523 13 13 12.5523 13 12C13 11.4477 12.5523 11 12 11ZM10 12C10 10.8954 10.8954 10 12 10C13.1046 10 14 10.8954 14 12C14 13.1046 13.1046 14 12 14C10.8954 14 10 13.1046 10 12Z" fill="currentColor"/>
<path fill-rule="evenodd" clip-rule="evenodd" d="M11.9999 9.5C9.64477 9.5 8.00887 10.9874 7.28843 11.8087C7.18771 11.9235 7.18771 12.0765 7.28843 12.1913C8.00887 13.0126 9.64477 14.5 11.9999 14.5C14.3551 14.5 15.991 13.0126 16.7114 12.1913C16.8121 12.0765 16.8121 11.9235 16.7114 11.8087C15.991 10.9874 14.3551 9.5 11.9999 9.5ZM6.53667 11.1492C7.32348 10.2523 9.21141 8.5 11.9999 8.5C14.7884 8.5 16.6764 10.2523 17.4632 11.1492C17.8949 11.6414 17.8949 12.3586 17.4632 12.8508C16.6764 13.7477 14.7884 15.5 11.9999 15.5C9.21141 15.5 7.32348 13.7477 6.53667 12.8508C6.10496 12.3586 6.10496 11.6414 6.53667 11.1492Z" fill="currentColor"/>
</svg>
