<svg width="16" height="16" viewBox="0 0 12 12" fill="none" xmlns="http://www.w3.org/2000/svg">
<path d="M4.5 4.5C4.5 3.39543 5.39543 2.5 6.5 2.5H7C7.27614 2.5 7.5 2.72386 7.5 3C7.5 3.27614 7.27614 3.5 7 3.5H6.5C5.94772 3.5 5.5 3.94772 5.5 4.5C5.5 5.05228 5.94772 5.5 6.5 5.5C7.60457 5.5 8.5 6.39543 8.5 7.5C8.5 8.60457 7.60457 9.5 6.5 9.5H5.5C5.22386 9.5 5 9.27614 5 9C5 8.72386 5.22386 8.5 5.5 8.5H6.5C7.05228 8.5 7.5 8.05228 7.5 7.5C7.5 6.94772 7.05228 6.5 6.5 6.5C5.39543 6.5 4.5 5.60457 4.5 4.5Z" fill="currentColor"/>
</svg>
