<?xml version="1.0"?>
<svg width="610" height="600" xmlns="http://www.w3.org/2000/svg" xmlns:svg="http://www.w3.org/2000/svg" version="1.1">
 <g class="layer">
  <title>Layer 1</title>
  <path d="m402.87,60.55l-15.2,28.51l-83.62,-47.51l-81.72,47.51l-15.2,-28.51l96.92,-58.91l98.82,58.91zm-239.45,62.71l-64.61,38.01l58.91,34.21l-19,26.61l-57.01,-30.41l0,72.21l-34.21,0l0,-110.22l98.82,-58.91l17.1,28.51zm399.08,140.63l-34.21,0l0,-72.21l-55.11,30.41l-19,-26.61l58.91,-34.21l-66.51,-38.01l17.1,-28.51l98.82,58.91l0,110.22zm-271.75,43.71l-72.21,-41.81l13.3,-26.61l74.11,41.81l74.11,-41.81l15.2,26.61l-72.21,41.81l0,81.72l-32.31,0l0,-81.72zm-127.32,171.03l-17.1,28.51l-98.82,-58.91l0,-112.12l34.21,0l0,93.12l81.72,49.41zm399.08,-142.53l0,112.12l-98.82,58.91l-17.1,-28.51l81.72,-49.41l0,-93.12l34.21,0zm-159.63,203.34l-98.82,58.91l-96.92,-58.91l15.2,-28.51l68.41,39.91l0,-70.31l32.31,0l0,68.41l64.61,-38.01l15.2,28.51z" fill="currentColor" id="svg_1"/>
 </g>
</svg>