<svg width="38" height="38" viewBox="0 0 38 38" fill="none" xmlns="http://www.w3.org/2000/svg">
<path fill-rule="evenodd" clip-rule="evenodd" d="M15 10C15.6213 10 16.125 10.5037 16.125 11.125V13.375H24C24.6213 13.375 25.125 13.8787 25.125 14.5V22.375H27.375C27.9963 22.375 28.5 22.8787 28.5 23.5C28.5 24.1213 27.9963 24.625 27.375 24.625H25.125V26.875C25.125 27.4963 24.6213 28 24 28C23.3787 28 22.875 27.4963 22.875 26.875V24.625H15C14.3787 24.625 13.875 24.1213 13.875 23.5V15.625H11.625C11.0037 15.625 10.5 15.1213 10.5 14.5C10.5 13.8787 11.0037 13.375 11.625 13.375H13.875V11.125C13.875 10.5037 14.3787 10 15 10ZM16.125 15.625V22.375H22.875V15.625H16.125Z" fill="currentColor"/>
</svg>
