<svg width="16" height="16" viewBox="6 6 12 12" fill="none" xmlns="http://www.w3.org/2000/svg">
<path fill-rule="evenodd" clip-rule="evenodd" d="M14.5 9H16V10H8V9L9.5 9C9.5 8.17157 10.1716 7.5 11 7.5H13C13.8284 7.5 14.5 8.17157 14.5 9ZM10.5 9L13.5 9C13.5 8.72386 13.2761 8.5 13 8.5L11 8.5C10.7239 8.5 10.5 8.72386 10.5 9ZM9.5 10.5V15.5C9.5 15.7761 9.72386 16 10 16H14C14.2761 16 14.5 15.7761 14.5 15.5V10.5H15.5V15.5C15.5 16.3284 14.8284 17 14 17H10C9.17157 17 8.5 16.3284 8.5 15.5V10.5H9.5ZM11.5 11.5C11.5 11.2239 11.2761 11 11 11C10.7239 11 10.5 11.2239 10.5 11.5V14.5C10.5 14.7761 10.7239 15 11 15C11.2761 15 11.5 14.7761 11.5 14.5V11.5ZM13 11C13.2761 11 13.5 11.2239 13.5 11.5V14.5C13.5 14.7761 13.2761 15 13 15C12.7239 15 12.5 14.7761 12.5 14.5V11.5C12.5 11.2239 12.7239 11 13 11Z" fill="currentColor"/>
</svg>
