<svg width="16" height="16" viewBox="0 0 12 12" fill="none" xmlns="http://www.w3.org/2000/svg">
<path fill-rule="evenodd" clip-rule="evenodd" d="M3 11C2.17157 11 1.5 10.3284 1.5 9.5L1.5 3.5C1.5 2.67157 2.17157 2 3 2L6 2C6.82843 2 7.5 2.67157 7.5 3.5L7.5 4.5C7.5 4.77614 7.27614 5 7 5C6.72386 5 6.5 4.77614 6.5 4.5L6.5 3.5C6.5 3.22386 6.27614 3 6 3L3 3C2.72386 3 2.5 3.22386 2.5 3.5L2.5 9.5C2.5 9.77614 2.72386 10 3 10L6 10C6.27614 10 6.5 9.77614 6.5 9.5L6.5 8.5C6.5 8.22386 6.72386 8 7 8C7.27614 8 7.5 8.22386 7.5 8.5L7.5 9.5C7.5 10.3284 6.82843 11 6 11L3 11ZM9 7L8.2 7.6C7.97909 7.76568 7.93432 8.07908 8.1 8.3C8.26569 8.52091 8.57909 8.56568 8.8 8.4L10.3733 7.22C10.8533 6.86 10.8533 6.14 10.3733 5.78L8.8 4.6C8.57909 4.43431 8.26569 4.47909 8.1 4.7C7.93432 4.92091 7.97909 5.23431 8.2 5.4L9.00001 6L5.5 6C5.22386 6 5 6.22386 5 6.5C5 6.77614 5.22386 7 5.5 7L9 7Z" fill="currentColor"/>
</svg>
