<svg width="16" height="16" viewBox="4 4 16 16" fill="none" xmlns="http://www.w3.org/2000/svg">
<path fill-rule="evenodd" clip-rule="evenodd" d="M7.33313 10.6271C7.1272 10.4432 6.81112 10.461 6.62714 10.6669C6.44316 10.8728 6.4615 11.1894 6.66743 11.3734L6.66819 11.374L6.67032 11.3759L6.67705 11.3818L6.70021 11.4019C6.71991 11.4188 6.74808 11.4426 6.7843 11.4724C6.85671 11.5318 6.96148 11.6151 7.09523 11.7142C7.1782 11.7757 7.27253 11.8434 7.37741 11.9155L6.64645 12.6465C6.45118 12.8417 6.45118 13.1583 6.64645 13.3536C6.84171 13.5488 7.15829 13.5488 7.35355 13.3536L8.25285 12.4543C8.73378 12.7179 9.31351 12.9846 9.96266 13.1827L9.6318 15.1678C9.58641 15.4402 9.77042 15.6978 10.0428 15.7432C10.3152 15.7886 10.5728 15.6046 10.6182 15.3322L10.9382 13.4119C11.2804 13.468 11.6354 13.5 12 13.5C12.3646 13.5 12.7196 13.468 13.0618 13.4119L13.3818 15.3322C13.4272 15.6046 13.6848 15.7886 13.9572 15.7432C14.2296 15.6978 14.4136 15.4402 14.3682 15.1678L14.0373 13.1827C14.6865 12.9846 15.2662 12.7179 15.7472 12.4543L16.6464 13.3536C16.8417 13.5488 17.1583 13.5488 17.3536 13.3536C17.5488 13.1583 17.5488 12.8417 17.3536 12.6465L16.6226 11.9155C16.7275 11.8434 16.8218 11.7757 16.9048 11.7142C17.0385 11.6151 17.1433 11.5318 17.2157 11.4724C17.2519 11.4426 17.2801 11.4188 17.2998 11.4019L17.323 11.3818L17.3297 11.3759L17.3318 11.374L17.3331 11.3729C17.3333 11.3728 17.3331 11.3729 17 11L17.3331 11.3729C17.5391 11.1889 17.5568 10.8728 17.3729 10.6669C17.1889 10.461 16.8728 10.4433 16.6669 10.6271L16.664 10.6296L16.6486 10.643C16.6341 10.6554 16.6115 10.6746 16.5811 10.6995C16.5203 10.7494 16.4286 10.8224 16.3094 10.9108C16.0705 11.0878 15.7231 11.3251 15.2937 11.5624C14.4289 12.0403 13.2643 12.5 12 12.5C10.7357 12.5 9.57108 12.0403 8.7063 11.5624C8.27693 11.3251 7.92953 11.0878 7.69063 10.9108C7.57136 10.8224 7.47967 10.7494 7.41888 10.6995C7.38849 10.6746 7.36587 10.6554 7.35143 10.643L7.33598 10.6296L7.33313 10.6271ZM7.00028 10.9997C7.33313 10.6271 7.33323 10.6272 7.33313 10.6271L7.00028 10.9997ZM7 11L6.66743 11.3734C6.6673 11.3732 6.66688 11.3729 7 11Z" fill="currentColor"/>
</svg>
