<svg width="16" height="16" viewBox="0 0 12 12" fill="none" xmlns="http://www.w3.org/2000/svg">
<path fill-rule="evenodd" clip-rule="evenodd" d="M1.5 3.5C1.5 2.67157 2.17157 2 3 2H9C9.82843 2 10.5 2.67157 10.5 3.5V8.5C10.5 9.32843 9.82843 10 9 10H8C7.72386 10 7.5 9.77614 7.5 9.5C7.5 9.22386 7.72386 9 8 9H9C9.27614 9 9.5 8.77614 9.5 8.5V3.5C9.5 3.22386 9.27614 3 9 3H3C2.72386 3 2.5 3.22386 2.5 3.5V8.5C2.5 8.77614 2.72386 9 3 9H4C4.27614 9 4.5 9.22386 4.5 9.5C4.5 9.77614 4.27614 10 4 10H3C2.17157 10 1.5 9.32843 1.5 8.5V3.5ZM6.5 7L7.1 7.8C7.26568 8.02091 7.57908 8.06568 7.8 7.9C8.02091 7.73431 8.06568 7.42091 7.9 7.2L6.72 5.62666C6.36 5.14666 5.64 5.14666 5.28 5.62666L4.1 7.2C3.93431 7.42091 3.97908 7.73431 4.2 7.9C4.42091 8.06568 4.73431 8.02091 4.9 7.8L5.5 6.99999V10.5C5.5 10.7761 5.72386 11 6 11C6.27614 11 6.5 10.7761 6.5 10.5V7Z" fill="currentColor"/>
</svg>
