<svg width="16" height="16" viewBox="0 0 12 12" fill="none" xmlns="http://www.w3.org/2000/svg">
<path fill-rule="evenodd" clip-rule="evenodd" d="M9 2C9 1.72386 8.77614 1.5 8.5 1.5C8.22386 1.5 8 1.72386 8 2V3H7C6.72386 3 6.5 3.22386 6.5 3.5C6.5 3.77614 6.72386 4 7 4H8V5C8 5.27614 8.22386 5.5 8.5 5.5C8.77614 5.5 9 5.27614 9 5V4H10C10.2761 4 10.5 3.77614 10.5 3.5C10.5 3.22386 10.2761 3 10 3H9V2ZM3.5 3C3.22386 3 3 3.22386 3 3.5V8.5C3 8.77614 3.22386 9 3.5 9H8.5C8.77614 9 9 8.77614 9 8.5V6.5C9 6.22386 9.22386 6 9.5 6C9.77614 6 10 6.22386 10 6.5V8.5C10 9.32843 9.32843 10 8.5 10H3.5C2.67157 10 2 9.32843 2 8.5V3.5C2 2.67157 2.67157 2 3.5 2H5.5C5.77614 2 6 2.22386 6 2.5C6 2.77614 5.77614 3 5.5 3H3.5Z" fill="currentColor"/>
</svg>
