<svg width="38" height="38" viewBox="0 0 38 38" fill="none" xmlns="http://www.w3.org/2000/svg">
<path fill-rule="evenodd" clip-rule="evenodd" d="M25.1369 19.0001C24.602 19.0001 24.1696 19.4201 24.1696 19.9376C24.1696 22.5222 22.0001 24.625 19.3333 24.625C16.6666 24.625 14.497 22.5222 14.497 19.9376C14.497 17.4411 16.5273 15.4124 19.0693 15.2764L18.812 15.5249C18.4338 15.8914 18.4338 16.4839 18.812 16.8505C19.0006 17.0333 19.2482 17.1251 19.4958 17.1251C19.7435 17.1251 19.9911 17.0333 20.1797 16.8505L22.1142 14.9755C22.4924 14.6089 22.4924 14.0164 22.1142 13.6499L20.1797 11.7749C19.8015 11.4084 19.1902 11.4084 18.812 11.7749C18.4338 12.1415 18.4338 12.734 18.812 13.1005L19.107 13.3865C15.4798 13.5036 12.5625 16.393 12.5625 19.9376C12.5625 23.5563 15.6007 26.5 19.3333 26.5C23.066 26.5 26.1042 23.5563 26.1042 19.9376C26.1042 19.4201 25.6718 19.0001 25.1369 19.0001" fill="currentColor"/>
</svg>
