<svg width="16" height="16" viewBox="0 0 12 12" fill="none" xmlns="http://www.w3.org/2000/svg">
<path fill-rule="evenodd" clip-rule="evenodd" d="M4.66421 2C4.26639 2 3.88486 2.15803 3.60355 2.43934L2.43934 3.60355C2.15804 3.88486 2 4.26639 2 4.66421V8.5C2 9.32843 2.67157 10 3.5 10H8.5C9.32843 10 10 9.32843 10 8.5V3.5C10 2.67157 9.32843 2 8.5 2H7.5H5.5H4.66421ZM5 3H4.66421C4.53161 3 4.40443 3.05268 4.31066 3.14645L3.14645 4.31066C3.05268 4.40443 3 4.53161 3 4.66421V8.5C3 8.77614 3.22386 9 3.5 9H8.5C8.77614 9 9 8.77614 9 8.5V3.5C9 3.22386 8.77614 3 8.5 3H8V4.5C8 4.77614 7.77614 5 7.5 5H5.5C5.22386 5 5 4.77614 5 4.5V3Z" fill="currentColor"/>
</svg>
