<svg width="38" height="38" viewBox="0 0 38 38" fill="none" xmlns="http://www.w3.org/2000/svg">
<path fill-rule="evenodd" clip-rule="evenodd" d="M16.3645 10.5293C17.0464 10.347 17.7625 10.25 18.5 10.25C19.2375 10.25 19.9536 10.347 20.6355 10.5293L20.2482 11.9784C19.6914 11.8296 19.1056 11.75 18.5 11.75C17.8944 11.75 17.3086 11.8296 16.7518 11.9784L16.3645 10.5293ZM11.3545 14.3738C12.0788 13.1221 13.1221 12.0788 14.3738 11.3545L15.125 12.6529C14.9598 12.7485 14.799 12.8509 14.643 12.9597C17.1237 13.9206 19.8763 13.9206 22.357 12.9597C22.201 12.8509 22.0402 12.7485 21.875 12.6529L22.6262 11.3545C23.8779 12.0788 24.9212 13.1221 25.6455 14.3738L24.3471 15.125C24.0398 14.5938 23.662 14.1083 23.2267 13.6812C20.2171 15.0134 16.7829 15.0134 13.7733 13.6812C13.338 14.1083 12.9602 14.5938 12.6529 15.125L11.3545 14.3738ZM10.25 18.5C10.25 17.7625 10.347 17.0464 10.5293 16.3645L11.9784 16.7518C11.8906 17.0803 11.8269 17.419 11.7894 17.7658C16.1247 19.3372 20.8753 19.3372 25.2106 17.7658C25.1731 17.419 25.1094 17.0803 25.0216 16.7518L26.4707 16.3645C26.653 17.0464 26.75 17.7625 26.75 18.5C26.75 19.2375 26.653 19.9536 26.4707 20.6355L25.0216 20.2482C25.1445 19.7885 25.2201 19.3091 25.2428 18.8151C20.8742 20.3208 16.1258 20.3208 11.7572 18.8151C11.7799 19.3091 11.8555 19.7885 11.9784 20.2482L10.5293 20.6355C10.347 19.9536 10.25 19.2375 10.25 18.5ZM14.3738 25.6455C13.1221 24.9212 12.0788 23.8779 11.3545 22.6262L12.6529 21.875C12.8207 22.165 13.0095 22.4415 13.2172 22.7022C16.6638 23.7308 20.3362 23.7308 23.7828 22.7022C23.9905 22.4415 24.1793 22.165 24.3471 21.875L25.6455 22.6262C24.9212 23.8779 23.8779 24.9212 22.6262 25.6455L21.875 24.3471C22.0058 24.2714 22.1338 24.1915 22.2589 24.1075C19.7769 24.5957 17.2231 24.5957 14.7411 24.1075C14.8662 24.1915 14.9942 24.2714 15.125 24.3471L14.3738 25.6455ZM18.5 26.75C17.7625 26.75 17.0464 26.653 16.3645 26.4707L16.7518 25.0216C17.3086 25.1704 17.8944 25.25 18.5 25.25C19.1056 25.25 19.6914 25.1704 20.2482 25.0216L20.6355 26.4707C19.9536 26.653 19.2375 26.75 18.5 26.75Z" fill="currentColor"/>
</svg>
