<svg width="38" height="38" viewBox="0 0 38 38" fill="none" xmlns="http://www.w3.org/2000/svg">
<path fill-rule="evenodd" clip-rule="evenodd" d="M22.0831 10.9413C23.1429 10.9357 24.0754 11.6408 24.3565 12.6603L24.6802 13.8339L23.4489 14.17L23.1252 12.9964C22.9974 12.5329 22.5736 12.2124 22.0919 12.215L20.0088 12.226L20 10.9524L22.0831 10.9413ZM16.3578 10.9751L18.4409 10.9641L18.4496 12.2377L16.3665 12.2488C15.8979 12.2513 15.4865 12.5592 15.3534 13.0072L14.892 14.5604L13.6675 14.1969L14.1289 12.6437C14.4217 11.6581 15.3267 10.9806 16.3578 10.9751ZM25.0038 15.0075L25.3275 16.1811C25.6147 17.2229 25.1486 18.3241 24.2002 18.8439L23.1295 19.4308L22.5131 18.3144L23.5838 17.7275C24.0148 17.4912 24.2268 16.9907 24.0962 16.5172L23.7725 15.3436L25.0038 15.0075ZM12.2833 18.8565L13.2061 15.7501L14.4306 16.1136L13.5078 19.22L12.2833 18.8565ZM11.3605 21.9628L11.8219 20.4096L13.0464 20.7732L12.585 22.3264C12.4506 22.7788 12.6321 23.2658 13.0304 23.5215L14.1207 24.2215L13.4306 25.2921L12.3404 24.5922C11.4641 24.0297 11.0649 22.9582 11.3605 21.9628ZM19.6953 24.1541L19.0164 25.6793C18.4343 26.9871 16.8191 27.4675 15.6112 26.692L14.5209 25.9921L15.211 24.9214L16.3012 25.6214C16.8503 25.9738 17.5845 25.7555 17.8491 25.161L18.5279 23.6358L19.6953 24.1541Z" fill="currentColor"/>
<path d="M22.6649 26.2004C22.5798 26.1153 22.5157 26.0116 22.4777 25.8975L21.4002 22.6651C21.1396 21.8834 21.8834 21.1396 22.6651 21.4002L25.8975 22.4777C26.0117 22.5157 26.1154 22.5798 26.2004 22.6649V22.6649C26.503 22.9675 26.503 23.4581 26.2004 23.7607L23.7607 26.2004C23.4581 26.503 22.9675 26.503 22.6649 26.2004V26.2004Z" fill="currentColor"/>
</svg>
