<svg width="38" height="38" viewBox="0 0 38 38" fill="none" xmlns="http://www.w3.org/2000/svg">
    <path d="M21.6634 25.716C21.2372 26.5644 20.0524 26.5946 19.7797 25.764L17.0491 17.4463C16.7833 16.6367 17.6452 15.7799 18.4524 16.0512L26.7108 18.8274C27.5386 19.1056 27.501 20.2904 26.6511 20.7118L24.3958 21.6809L27.4216 24.7067C27.7978 25.083 27.7071 25.7837 27.219 26.2719C26.7308 26.76 26.0301 26.8507 25.6538 26.4745L22.5935 23.4142L21.6634 25.716Z" fill="currentColor"/>
    <path d="M11 11H12.5V12.5H11V11Z" fill="currentColor"/>
    <path d="M11 14H12.5V15.5H11V14Z" fill="currentColor"/>
    <path d="M11 17H12.5V18.5H11V17Z" fill="currentColor"/>
    <path d="M14 17H15.5V18.5H14V17Z" fill="currentColor"/>
    <path d="M14 11H15.5V12.5H14V11Z" fill="currentColor"/>
    <path d="M17 11H18.5V12.5H17V11Z" fill="currentColor"/>
    <path d="M20 11H21.5V12.5H20V11Z" fill="currentColor"/>
    <path d="M20 14H21.5V15.5H20V14Z" fill="currentColor"/>
</svg>
