<svg width="38" height="38" viewBox="0 0 38 38" fill="none" xmlns="http://www.w3.org/2000/svg">
<path fill-rule="evenodd" clip-rule="evenodd" d="M15.9041 11.6929C16.151 11.3604 16.6575 11.2283 17.0353 11.398L22.107 13.6754L21.213 14.8798L20.4014 14.5154L19.7503 15.3925L18.8381 14.9828L19.4892 14.1058L16.8255 12.9096L15.3745 14.8643L16.5924 15.4112L15.9964 16.2142L14.7784 15.6673L14.3444 16.252L12.976 15.6376L15.9041 11.6929ZM23.375 14.2448L28.4467 16.5222C28.8245 16.6919 28.9307 17.099 28.6838 17.4316L25.7557 21.3763L24.3873 20.7618L24.8214 20.177L23.6039 19.6303L24.2 18.8274L25.4174 19.3741L26.8684 17.4194L24.2051 16.2235L23.5543 17.1003L22.642 16.6906L23.2929 15.8138L22.4809 15.4492L23.375 14.2448ZM25.0236 22.3624L22.0955 26.3071C21.8486 26.6397 21.3421 26.7717 20.9643 26.602L15.8926 24.3246L16.7866 23.1202L17.5986 23.4848L18.2498 22.6076L19.1621 23.0172L18.5109 23.8944L21.1741 25.0904L22.6253 23.1354L21.4076 22.5886L22.0037 21.7856L23.2214 22.3325L23.6553 21.748L25.0236 22.3624ZM9.31581 20.5684L12.2439 16.6237L13.6123 17.2382L13.1784 17.8227L14.3961 18.3695L13.8001 19.1724L12.5824 18.6256L11.1312 20.5806L13.7949 21.7767L14.4459 20.8998L15.3581 21.3094L14.7071 22.1864L15.5187 22.5508L14.6247 23.7553L9.55296 21.4778C9.17509 21.3081 9.06892 20.901 9.31581 20.5684ZM19.5057 21.7346L15.702 20.0265L15.9998 19.6253L15.5439 19.4206L17.74 16.4621L18.1962 16.6669L18.4943 16.2653L22.2981 17.9733L22.0002 18.3747L22.4562 18.5795L20.2601 21.538L19.8038 21.333L19.5057 21.7346ZM19.6459 20.7269L16.7544 19.4285L18.3544 17.273L21.2459 18.5715L19.6459 20.7269Z" fill="white"/>
</svg>
