<svg width="38" height="38" viewBox="0 0 38 38" fill="none" xmlns="http://www.w3.org/2000/svg">
<path d="M12.5 14C12.5 12.8954 13.3954 12 14.5 12H24.5C25.6046 12 26.5 12.8954 26.5 14V24C26.5 25.1046 25.6046 26 24.5 26H14.5C13.3954 26 12.5 25.1046 12.5 24V14Z" stroke="currentColor" stroke-width="1.5" stroke-dasharray="4 2" fill-opacity="0" />
<path fill-rule="evenodd" clip-rule="evenodd" d="M19.5 18C18.9477 18 18.5 18.4477 18.5 19C18.5 19.5523 18.9477 20 19.5 20C20.0523 20 20.5 19.5523 20.5 19C20.5 18.4477 20.0523 18 19.5 18ZM17.5 19C17.5 17.8954 18.3954 17 19.5 17C20.6046 17 21.5 17.8954 21.5 19C21.5 20.1046 20.6046 21 19.5 21C18.3954 21 17.5 20.1046 17.5 19Z" fill="currentColor"/>
</svg>
