<svg width="38" height="38" viewBox="0 0 38 38" fill="none" xmlns="http://www.w3.org/2000/svg">
<path fill-rule="evenodd" clip-rule="evenodd" d="M19.5597 13.3858L19.8547 13.0999C20.2319 12.7343 20.2319 12.1408 19.8547 11.7742C19.4765 11.4086 18.8642 11.4086 18.487 11.7742L16.5525 13.6493C16.1743 14.0159 16.1743 14.6093 16.5525 14.975L18.487 16.85C18.6756 17.0338 18.9232 17.1247 19.1708 17.1247C19.4185 17.1247 19.6651 17.0338 19.8547 16.85C20.2319 16.4844 20.2319 15.8909 19.8547 15.5243L19.5974 15.2759C22.1394 15.4128 24.1696 17.4407 24.1696 19.9373C24.1696 22.5221 21.9991 24.6249 19.3333 24.6249C16.6666 24.6249 14.497 22.5221 14.497 19.9373C14.497 19.4198 14.0637 18.9998 13.5298 18.9998C12.9949 18.9998 12.5625 19.4198 12.5625 19.9373C12.5625 23.5562 15.5997 26.5 19.3333 26.5C23.066 26.5 26.1042 23.5562 26.1042 19.9373C26.1042 16.3934 23.1869 13.503 19.5597 13.3858" fill="currentColor"/>
</svg>
